<svg width="820" height="256" viewBox="0 0 820 256" fill="none" xmlns="http://www.w3.org/2000/svg">
<path d="M48 157L105.137 205H178.863L236 157" stroke="white" stroke-width="32"/>
<rect x="78" y="42" width="41" height="42" fill="white"/>
<rect x="166" y="49" width="43" height="43" fill="white"/>
<path d="M308.016 170V83.54H328.608C335.56 83.54 341.148 84.112 345.372 85.256C349.684 86.4 353.336 88.556 356.328 91.724C359.32 94.892 361.432 99.292 362.664 104.924C363.896 110.468 364.512 118.388 364.512 128.684C364.512 138.892 363.236 147.12 360.684 153.368C358.22 159.616 354.48 163.972 349.464 166.436C344.448 168.812 337.408 170 328.344 170H308.016ZM345.24 152.444C347.264 150.156 348.628 147.032 349.332 143.072C350.124 139.024 350.52 133.568 350.52 126.704C350.52 119.752 350.212 114.296 349.596 110.336C348.98 106.376 347.66 103.252 345.636 100.964C343.7 98.588 341.28 97.092 338.376 96.476C335.472 95.772 331.336 95.42 325.968 95.42H321.744V158.12H325.704C330.808 158.12 334.812 157.768 337.716 157.064C340.708 156.272 343.216 154.732 345.24 152.444ZM377.052 170V157.856H396.72V119.444H378.108V107.3H410.316V157.856H428.928V170H377.052ZM402.792 98.192C400.152 98.192 398.04 97.4 396.456 95.816C394.96 94.144 394.212 91.988 394.212 89.348C394.212 86.708 395.004 84.596 396.588 83.012C398.172 81.428 400.284 80.636 402.924 80.636C405.652 80.636 407.72 81.428 409.128 83.012C410.624 84.508 411.372 86.62 411.372 89.348C411.372 92.076 410.624 94.232 409.128 95.816C407.632 97.4 405.52 98.192 402.792 98.192ZM443.316 167.096L446.22 155.084C454.58 157.724 461.224 159.044 466.152 159.044C471.08 159.044 474.424 158.56 476.184 157.592C477.944 156.712 478.824 155.128 478.824 152.84C478.824 150.552 478.032 148.924 476.448 147.956C474.864 146.988 471.872 145.976 467.472 144.92C458.76 142.808 452.688 140.476 449.256 137.924C445.824 135.284 444.108 131.016 444.108 125.12C444.108 112.536 452.204 106.244 468.396 106.244C475.348 106.244 483.4 107.388 492.552 109.676L490.044 122.216C481.332 119.752 474.6 118.52 469.848 118.52C465.096 118.52 461.884 118.96 460.212 119.84C458.628 120.632 457.836 122.04 457.836 124.064C457.836 126.088 458.628 127.584 460.212 128.552C461.884 129.432 466.108 130.796 472.884 132.644C479.66 134.492 484.632 136.648 487.8 139.112C490.968 141.488 492.552 145.58 492.552 151.388C492.552 164.676 484.368 171.32 468 171.32C460.344 171.32 452.116 169.912 443.316 167.096ZM544.032 130.136V119.312C542.008 118.96 540.028 118.784 538.092 118.784C532.636 118.784 528.808 120.368 526.608 123.536C524.496 126.704 523.44 131.72 523.44 138.584C523.44 145.448 524.54 150.552 526.74 153.896C529.028 157.152 532.988 158.78 538.62 158.78C544.252 158.78 550.016 157.988 555.912 156.404L557.892 169.076C551.732 170.836 545.132 171.716 538.092 171.716C518.556 171.716 508.788 160.716 508.788 138.716C508.788 127.364 510.988 119.092 515.388 113.9C519.876 108.62 527.312 105.98 537.696 105.98C544.384 105.98 550.808 106.816 556.968 108.488V130.136H544.032ZM574.524 170V81.956H588.12V111.92C593.576 108.136 598.68 106.244 603.432 106.244C612.584 106.244 619.184 108.928 623.232 114.296C627.28 119.576 629.304 127.848 629.304 139.112C629.304 150.376 626.796 158.604 621.78 163.796C616.852 168.9 610.296 171.452 602.112 171.452C598.328 171.452 593.62 170.088 587.988 167.36L587.724 170H574.524ZM601.716 119.048C597.404 119.048 592.872 121.028 588.12 124.988V154.688C593.4 157.328 598.152 158.648 602.376 158.648C606.6 158.648 609.68 157.064 611.616 153.896C613.64 150.64 614.652 145.668 614.652 138.98C614.652 125.692 610.34 119.048 601.716 119.048ZM641.052 170V157.856H653.856V119.444H641.052V107.3H667.452L667.716 113.636C674.404 109.852 682.06 107.476 690.684 106.508H694.248V119.708H690.684C681.004 120.588 673.348 122.612 667.716 125.78V158.12H687.384V170H641.052ZM711.276 114.296C715.764 108.928 722.672 106.244 732 106.244C741.328 106.244 748.236 108.928 752.724 114.296C757.212 119.576 759.456 127.76 759.456 138.848C759.456 149.936 757.212 158.208 752.724 163.664C748.236 169.032 741.328 171.716 732 171.716C722.672 171.716 715.764 169.032 711.276 163.664C706.788 158.208 704.544 149.936 704.544 138.848C704.544 127.76 706.788 119.576 711.276 114.296ZM721.836 123.668C720.076 126.748 719.196 131.808 719.196 138.848C719.196 145.888 720.12 150.992 721.968 154.16C723.816 157.328 727.16 158.912 732 158.912C736.84 158.912 740.184 157.328 742.032 154.16C743.88 150.992 744.804 145.888 744.804 138.848C744.804 131.808 743.88 126.748 742.032 123.668C740.272 120.588 736.928 119.048 732 119.048C727.072 119.048 723.684 120.588 721.836 123.668Z" fill="white"/>
</svg>
