<svg width="256" height="256" viewBox="0 0 256 256" fill="none" xmlns="http://www.w3.org/2000/svg">
<path d="M121.4 162.399C125.163 164.621 129.837 164.621 133.6 162.399L154.011 150.35C157.738 148.15 162.362 148.128 166.111 150.292L202.237 171.149C205.605 173.094 207.822 176.552 208.184 180.425L212.607 227.75H127.5H42.3926L46.8156 180.425C47.1775 176.552 49.3946 173.094 52.7635 171.149L88.8892 150.292C92.6379 148.128 97.2618 148.15 100.989 150.35L121.4 162.399Z" fill="white"/>
<path d="M121.5 37.4641C125.213 35.3205 129.787 35.3205 133.5 37.4641L168.698 57.7859C172.411 59.9295 174.698 63.891 174.698 68.1782V108.822C174.698 113.109 172.411 117.071 168.698 119.214L133.5 139.536C129.787 141.679 125.213 141.679 121.5 139.536L86.3016 119.214C82.5888 117.071 80.3016 113.109 80.3016 108.822V68.1782C80.3016 63.891 82.5888 59.9295 86.3016 57.7859L121.5 37.4641Z" fill="white"/>
</svg>
